<svg xmlns="http://www.w3.org/2000/svg" viewBox="0 0 165 202" width="165" height="202" role="img" aria-label="Abstract illustration of three side-by-side code approach cards with code panels and pro-con rows, above a clay-marked recommendation">
  <style>
    svg{stroke-linejoin:round}
    .bg{fill:#F0EEE6}
    .frame{fill:#FFFFFF;stroke:#D1CFC5;stroke-width:1.2}
    .wh{fill:#FFFFFF;stroke:#9C9B93;stroke-width:1.4}
    .whh{fill:#FFFFFF;stroke:#D1CFC5;stroke-width:1.2}
    .oa{fill:#E3DACC;stroke:#B7AE9D;stroke-width:1.2}
    .sl{fill:#141413}
    .cl{fill:#D97757}
    .ol{fill:#788C5D}
    .fl{fill:#D1CFC5}
    .fll{fill:#E6E3DA}
    .st{fill:none;stroke:#87867F;stroke-width:1.4}
    .stt{fill:none;stroke:#6F6E68;stroke-width:2}
    .hl{fill:none;stroke:#D1CFC5;stroke-width:1}
    .ln{fill:none;stroke:#9C9B93;stroke-width:1.3;stroke-linecap:round}
    .lnf{fill:none;stroke:#CFCDC3;stroke-width:1.1;stroke-linecap:round}
    .lc{fill:none;stroke:#D97757;stroke-width:1.5;stroke-linecap:round}
    .da{stroke-dasharray:3 3}
  </style>
  <rect x="0" y="0" width="165" height="202" class="bg"/>

<!-- prompt box (header) -->
<rect x="12" y="12" width="141" height="24" rx="4" class="oa"/>
<rect x="18" y="17.5" width="16" height="3" rx="1.5" class="cl"/>
<line x1="18" y1="26" x2="139" y2="26" class="lnf"/>
<line x1="18" y1="31" x2="110" y2="31" class="lnf"/>

<!-- column 1 -->
<rect x="12" y="44" width="43" height="110" rx="4.5" class="wh"/>
<rect x="17" y="50" width="11" height="5" rx="2" class="oa"/>
<rect x="48" y="51" width="2" height="2" rx="1" class="sl"/>
<!-- code panel -->
<rect x="17" y="60" width="31" height="28" rx="3" class="whh"/>
<circle cx="20.5" cy="64" r="1" class="sl"/>
<circle cx="24" cy="64" r="1" class="fll"/>
<circle cx="27.5" cy="64" r="1" class="fll"/>
<line x1="20.5" y1="70" x2="32" y2="70" class="hl"/>
<line x1="23" y1="74" x2="43" y2="74" class="hl"/>
<line x1="23" y1="78" x2="37" y2="78" class="hl"/>
<line x1="20.5" y1="82" x2="40" y2="82" class="hl"/>
<!-- pro/con rows -->
<circle cx="19" cy="95" r="1.3" class="fl"/>
<line x1="23" y1="95" x2="47" y2="95" class="lnf"/>
<circle cx="19" cy="101" r="1.3" class="fl"/>
<line x1="23" y1="101" x2="43" y2="101" class="lnf"/>
<!-- chip grid -->
<rect x="17" y="110" width="13" height="6" rx="2.5" class="fll"/>
<rect x="33" y="110" width="15" height="6" rx="2.5" class="fll"/>
<rect x="17" y="119" width="13" height="6" rx="2.5" class="fll"/>
<rect x="33" y="119" width="15" height="6" rx="2.5" class="fll"/>
<line x1="17" y1="135" x2="48" y2="135" class="hl"/>
<line x1="17" y1="140" x2="43" y2="140" class="hl"/>
<line x1="17" y1="145" x2="39" y2="145" class="hl"/>

<!-- column 2 -->
<rect x="61" y="44" width="43" height="110" rx="4.5" class="wh"/>
<rect x="66" y="50" width="11" height="5" rx="2" class="oa"/>
<rect x="97" y="51" width="2" height="2" rx="1" class="sl"/>
<rect x="66" y="60" width="31" height="28" rx="3" class="whh"/>
<circle cx="69.5" cy="64" r="1" class="sl"/>
<circle cx="73" cy="64" r="1" class="fll"/>
<circle cx="76.5" cy="64" r="1" class="fll"/>
<line x1="69.5" y1="70" x2="81" y2="70" class="hl"/>
<line x1="72" y1="74" x2="92" y2="74" class="hl"/>
<line x1="72" y1="78" x2="86" y2="78" class="hl"/>
<line x1="69.5" y1="82" x2="89" y2="82" class="hl"/>
<circle cx="68" cy="95" r="1.3" class="ol"/>
<line x1="72" y1="95" x2="96" y2="95" class="lnf"/>
<circle cx="68" cy="101" r="1.3" class="fl"/>
<line x1="72" y1="101" x2="92" y2="101" class="lnf"/>
<rect x="66" y="110" width="13" height="6" rx="2.5" class="fll"/>
<rect x="82" y="110" width="15" height="6" rx="2.5" class="fll"/>
<rect x="66" y="119" width="13" height="6" rx="2.5" class="fll"/>
<rect x="82" y="119" width="15" height="6" rx="2.5" class="fll"/>
<line x1="66" y1="135" x2="97" y2="135" class="hl"/>
<line x1="66" y1="140" x2="92" y2="140" class="hl"/>
<line x1="66" y1="145" x2="88" y2="145" class="hl"/>

<!-- column 3 (recommended — clay tab) -->
<rect x="110" y="44" width="43" height="110" rx="4.5" class="wh"/>
<rect x="115" y="50" width="11" height="5" rx="2" class="cl"/>
<rect x="146" y="51" width="2" height="2" rx="1" class="sl"/>
<rect x="115" y="60" width="31" height="28" rx="3" class="whh"/>
<circle cx="118.5" cy="64" r="1" class="sl"/>
<circle cx="122" cy="64" r="1" class="fll"/>
<circle cx="125.5" cy="64" r="1" class="fll"/>
<line x1="118.5" y1="70" x2="130" y2="70" class="hl"/>
<line x1="121" y1="74" x2="141" y2="74" class="hl"/>
<line x1="121" y1="78" x2="135" y2="78" class="hl"/>
<line x1="118.5" y1="82" x2="138" y2="82" class="hl"/>
<circle cx="117" cy="95" r="1.3" class="fl"/>
<line x1="121" y1="95" x2="145" y2="95" class="lnf"/>
<circle cx="117" cy="101" r="1.3" class="fl"/>
<line x1="121" y1="101" x2="141" y2="101" class="lnf"/>
<rect x="115" y="110" width="13" height="6" rx="2.5" class="fll"/>
<rect x="131" y="110" width="15" height="6" rx="2.5" class="fll"/>
<rect x="115" y="119" width="13" height="6" rx="2.5" class="fll"/>
<rect x="131" y="119" width="15" height="6" rx="2.5" class="fll"/>
<line x1="115" y1="135" x2="146" y2="135" class="hl"/>
<line x1="115" y1="140" x2="141" y2="140" class="hl"/>
<line x1="115" y1="145" x2="137" y2="145" class="hl"/>

<!-- recommendation block with clay left edge -->
<rect x="12" y="164" width="141" height="26" rx="4.5" class="wh"/>
<rect x="12" y="164" width="3.5" height="26" rx="1.75" class="cl"/>
<line x1="22" y1="172" x2="56" y2="172" class="lc"/>
<line x1="22" y1="179" x2="145" y2="179" class="lnf"/>
<line x1="22" y1="184" x2="124" y2="184" class="lnf"/>
</svg>
