<svg xmlns="http://www.w3.org/2000/svg" viewBox="0 0 165 202" width="165" height="202" role="img" aria-label="Abstract design system reference: a swatch grid, a stacked type scale, and a component shelf">
  <style>
    svg{stroke-linejoin:round}
    .bg{fill:#F0EEE6}
    .frame{fill:#FFFFFF;stroke:#D1CFC5;stroke-width:1.2}
    .wh{fill:#FFFFFF;stroke:#9C9B93;stroke-width:1.4}
    .whh{fill:#FFFFFF;stroke:#D1CFC5;stroke-width:1.2}
    .oa{fill:#E3DACC;stroke:#B7AE9D;stroke-width:1.2}
    .sl{fill:#141413}
    .cl{fill:#D97757}
    .ol{fill:#788C5D}
    .fl{fill:#D1CFC5}
    .fll{fill:#E6E3DA}
    .st{fill:none;stroke:#87867F;stroke-width:1.4}
    .stt{fill:none;stroke:#6F6E68;stroke-width:2}
    .hl{fill:none;stroke:#D1CFC5;stroke-width:1}
    .ln{fill:none;stroke:#9C9B93;stroke-width:1.3;stroke-linecap:round}
    .lnf{fill:none;stroke:#CFCDC3;stroke-width:1.1;stroke-linecap:round}
    .lc{fill:none;stroke:#D97757;stroke-width:1.5;stroke-linecap:round}
    .da{stroke-dasharray:3 3}
  </style>
  <rect x="12" y="12" width="141" height="178" rx="5" class="bg"/>

<!-- Color: swatch grid -->
<rect x="20" y="21" width="22" height="2.5" rx="1.25" class="fll"/>
<rect x="20" y="29" width="21" height="21" rx="3.5" class="cl"/>
<rect x="46.5" y="29" width="21" height="21" rx="3.5" class="oa"/>
<rect x="73" y="29" width="21" height="21" rx="3.5" class="whh"/>
<rect x="99.5" y="29" width="21" height="21" rx="3.5" class="ol"/>
<rect x="126" y="29" width="21" height="21" rx="3.5" class="wh"/>
<rect x="73" y="33" width="6" height="6" rx="1.5" class="fll"/>
<rect x="130" y="33" width="3" height="3" rx="1" class="sl"/>
<line x1="20.5" y1="54.5" x2="32" y2="54.5" class="lnf"/>
<line x1="47" y1="54.5" x2="58.5" y2="54.5" class="lnf"/>
<line x1="73.5" y1="54.5" x2="83" y2="54.5" class="lnf"/>
<line x1="100" y1="54.5" x2="111.5" y2="54.5" class="lnf"/>
<line x1="126.5" y1="54.5" x2="136" y2="54.5" class="lnf"/>

<!-- Typography: type scale ladder -->
<rect x="20" y="64" width="127" height="44" rx="4.5" class="wh"/>
<rect x="27" y="71" width="56" height="4.5" rx="2" class="fl"/>
<rect x="27" y="81.5" width="40" height="3" rx="1.5" class="fll"/>
<line x1="27" y1="92" x2="96" y2="92" class="ln"/>
<line x1="27" y1="99.5" x2="81" y2="99.5" class="lnf"/>
<line x1="124" y1="73.5" x2="140" y2="73.5" class="hl da"/>
<line x1="124" y1="92" x2="140" y2="92" class="hl da"/>
<circle cx="122" cy="73.5" r="1" class="sl"/>
<circle cx="122" cy="92" r="1" class="sl"/>

<!-- Spacing ruler: graduated bars -->
<rect x="20" y="114" width="127" height="26" rx="4.5" class="whh"/>
<line x1="27" y1="135.5" x2="140" y2="135.5" class="hl"/>
<rect x="28" y="131.5" width="2.5" height="4" rx="1" class="fll"/>
<rect x="40" y="128.5" width="2.5" height="7" rx="1" class="fll"/>
<rect x="52" y="124.5" width="2.5" height="11" rx="1" class="fl"/>
<rect x="64" y="120.5" width="2.5" height="15" rx="1" class="cl"/>
<rect x="76" y="124.5" width="2.5" height="11" rx="1" class="fl"/>
<rect x="88" y="128.5" width="2.5" height="7" rx="1" class="fll"/>
<rect x="100" y="131.5" width="2.5" height="4" rx="1" class="fll"/>
<line x1="118" y1="128" x2="140" y2="128" class="lnf"/>

<!-- Components: button/badge shelf -->
<rect x="20" y="146" width="127" height="32" rx="4.5" class="wh"/>
<rect x="27" y="155.5" width="26" height="13" rx="4" class="cl"/>
<rect x="58" y="155.5" width="24" height="13" rx="4" class="oa"/>
<rect x="88" y="159" width="16" height="6" rx="3" class="st"/>
<rect x="110" y="157.5" width="13" height="9" rx="2.5" class="whh"/>
<rect x="128" y="157.5" width="13" height="9" rx="2.5" class="whh"/>
<circle cx="116.5" cy="162" r="1.25" class="sl"/>
<line x1="131" y1="162" x2="138" y2="162" class="lnf"/>
</svg>
