<svg xmlns="http://www.w3.org/2000/svg" viewBox="0 0 165 202" width="165" height="202" role="img" aria-label="Abstract illustration of an animation prototype bench: a stage with a checkbox row and confetti burst, an easing option panel, and a keyframe timeline.">
  <style>
    svg{stroke-linejoin:round}
    .bg{fill:#F0EEE6}
    .frame{fill:#FFFFFF;stroke:#D1CFC5;stroke-width:1.2}
    .wh{fill:#FFFFFF;stroke:#9C9B93;stroke-width:1.4}
    .whh{fill:#FFFFFF;stroke:#D1CFC5;stroke-width:1.2}
    .oa{fill:#E3DACC;stroke:#B7AE9D;stroke-width:1.2}
    .sl{fill:#141413}
    .cl{fill:#D97757}
    .ol{fill:#788C5D}
    .fl{fill:#D1CFC5}
    .fll{fill:#E6E3DA}
    .st{fill:none;stroke:#87867F;stroke-width:1.4}
    .stt{fill:none;stroke:#6F6E68;stroke-width:2}
    .hl{fill:none;stroke:#D1CFC5;stroke-width:1}
    .ln{fill:none;stroke:#9C9B93;stroke-width:1.3;stroke-linecap:round}
    .lnf{fill:none;stroke:#CFCDC3;stroke-width:1.1;stroke-linecap:round}
    .lc{fill:none;stroke:#D97757;stroke-width:1.5;stroke-linecap:round}
    .da{stroke-dasharray:3 3}
  </style>
  <rect x="0" y="0" width="165" height="202" class="bg"/>
  <rect x="12" y="12" width="141" height="92" rx="5" class="wh"/>
<circle class="hl" cx="20.5" cy="20.5" r="1.5"/>
<circle class="hl" cx="26.5" cy="20.5" r="1.5"/>
<circle class="cl" cx="32.5" cy="20.5" r="1.5"/>
<line class="hl" x1="12" y1="27" x2="153" y2="27"/>
<rect class="oa" x="26" y="54" width="113" height="22" rx="4"/>
<circle class="cl" cx="40" cy="65" r="6"/>
<path class="frame" d="M37.2 65 L39.4 67.2 L43.4 62.4"/>
<line class="ln" x1="51" y1="63" x2="92" y2="63"/>
<line class="lnf" x1="51" y1="67.5" x2="76" y2="67.5"/>
<rect class="whh" x="118" y="60.5" width="15" height="9" rx="2.5"/>
<rect class="fll" x="50" y="38" width="4" height="4" rx="1.3" transform="rotate(35 52 40)"/>
<rect class="cl" x="68" y="35" width="4" height="4" rx="1.3" transform="rotate(-50 70 37)"/>
<rect class="fll" x="86" y="37" width="3.5" height="3.5" rx="1.2" transform="rotate(60 87.75 38.75)"/>
<rect class="fll" x="100" y="38" width="3.5" height="3.5" rx="1.2" transform="rotate(-40 101.75 39.75)"/>
<line class="hl da" x1="40" y1="94" x2="125" y2="94"/>
<rect class="wh" x="12" y="110" width="84" height="56" rx="5"/>
<rect class="fll" x="20" y="118" width="20" height="3.5" rx="1.75"/>
<circle class="sl" cx="89" cy="119.5" r="1.5"/>
<rect class="oa" x="20" y="128" width="68" height="9" rx="3"/>
<line class="ln" x1="25" y1="132.5" x2="49" y2="132.5"/>
<rect class="whh" x="20" y="141" width="68" height="9" rx="3"/>
<line class="lnf" x1="25" y1="145.5" x2="44" y2="145.5"/>
<rect class="whh" x="20" y="154" width="68" height="9" rx="3"/>
<circle class="cl" cx="25.5" cy="158.5" r="2"/>
<line class="lnf" x1="31" y1="158.5" x2="52" y2="158.5"/>
<rect class="wh" x="102" y="110" width="51" height="56" rx="5"/>
<rect class="fll" x="110" y="118" width="16" height="3.5" rx="1.75"/>
<line class="hl" x1="110" y1="156" x2="145" y2="156"/>
<line class="hl" x1="110" y1="143" x2="145" y2="143"/>
<line class="hl" x1="110" y1="130" x2="145" y2="130"/>
<path class="lc" d="M110 156 C118 156 120.5 131 128 131 C137 131 139.5 143 145 143"/>
<circle class="sl" cx="110" cy="156" r="2"/>
<circle class="cl" cx="145" cy="143" r="2"/>
<rect class="bg" x="12" y="174" width="141" height="20" rx="4"/>
<line class="hl da" x1="22" y1="184" x2="143" y2="184"/>
<circle class="sl" cx="30" cy="184" r="2.5"/>
<circle class="whh" cx="52" cy="184" r="2.5"/>
<circle class="whh" cx="74" cy="184" r="2.5"/>
<circle class="whh" cx="100" cy="184" r="2.5"/>
<circle class="ol" cx="135" cy="184" r="2.5"/>
</svg>
